<svg xmlns="http://www.w3.org/2000/svg" viewBox="4 13 50 38" fill="none">
  <!-- macOS template image: black glyph on transparent background. Same geometry as icon. -->
  <g transform="rotate(30,32,26)">
    <path d="M10 33 C10 28 16 28 16 28 L48 28 Q56 28 56 33 Q56 39 48 39 L16 39 C10 39 10 33 10 33Z" fill="#000000"/>
    <path d="M24 28 L24 19 Q24 17 26 17 L36 17 Q38 17 38 19 L38 28Z" fill="#000000"/>
    <line x1="36" y1="17" x2="36" y2="11" stroke="#000000" stroke-width="2.5" stroke-linecap="round"/>
    <circle cx="11" cy="33" r="3.5" fill="none" stroke="#000000" stroke-width="1.8"/>
    <line x1="11" y1="29.5" x2="11" y2="36.5" stroke="#000000" stroke-width="1.8" stroke-linecap="round"/>
    <line x1="7.5" y1="33" x2="14.5" y2="33" stroke="#000000" stroke-width="1.8" stroke-linecap="round"/>
  </g>
</svg>
